<mxfile host="app.diagrams.net" agent="Mozilla/5.0 (Windows NT 10.0; Win64; x64) AppleWebKit/537.36 (KHTML, like Gecko) Chrome/133.0.0.0 Safari/537.36" version="26.0.15">
  <diagram name="PÃ¡gina-1" id="ZjMf1RBir-6vuKQ86f03">
    <mxGraphModel dx="1000" dy="497" grid="1" gridSize="10" guides="1" tooltips="1" connect="1" arrows="1" fold="1" page="1" pageScale="1" pageWidth="827" pageHeight="1169" math="0" shadow="0">
      <root>
        <mxCell id="0" />
        <mxCell id="1" parent="0" />
        <mxCell id="CSFAE-QpbG_KnxOwziDy-1" value="A La Carte" style="rounded=1;whiteSpace=wrap;html=1;" parent="1" vertex="1">
          <mxGeometry x="680" y="360" width="120" height="60" as="geometry" />
        </mxCell>
        <mxCell id="o47skZGHR9bdBCTCLBsT-3" style="edgeStyle=orthogonalEdgeStyle;rounded=0;orthogonalLoop=1;jettySize=auto;html=1;" edge="1" parent="1" source="CSFAE-QpbG_KnxOwziDy-2" target="o47skZGHR9bdBCTCLBsT-1">
          <mxGeometry relative="1" as="geometry" />
        </mxCell>
        <mxCell id="o47skZGHR9bdBCTCLBsT-13" style="edgeStyle=orthogonalEdgeStyle;rounded=0;orthogonalLoop=1;jettySize=auto;html=1;entryX=0;entryY=0.5;entryDx=0;entryDy=0;" edge="1" parent="1" source="CSFAE-QpbG_KnxOwziDy-2" target="o47skZGHR9bdBCTCLBsT-9">
          <mxGeometry relative="1" as="geometry">
            <Array as="points">
              <mxPoint x="460" y="300" />
              <mxPoint x="460" y="480" />
            </Array>
          </mxGeometry>
        </mxCell>
        <mxCell id="CSFAE-QpbG_KnxOwziDy-2" value="5 - Principal&lt;div&gt;(Ponto Principal - PP)&lt;/div&gt;" style="rounded=1;whiteSpace=wrap;html=1;" parent="1" vertex="1">
          <mxGeometry x="330" y="270" width="120" height="60" as="geometry" />
        </mxCell>
        <mxCell id="o47skZGHR9bdBCTCLBsT-12" style="edgeStyle=orthogonalEdgeStyle;rounded=0;orthogonalLoop=1;jettySize=auto;html=1;entryX=0;entryY=0.5;entryDx=0;entryDy=0;" edge="1" parent="1" source="CSFAE-QpbG_KnxOwziDy-3" target="o47skZGHR9bdBCTCLBsT-10">
          <mxGeometry relative="1" as="geometry" />
        </mxCell>
        <mxCell id="CSFAE-QpbG_KnxOwziDy-3" value="Proposta NETSales" style="rounded=1;whiteSpace=wrap;html=1;" parent="1" vertex="1">
          <mxGeometry x="10" y="270" width="120" height="60" as="geometry" />
        </mxCell>
        <mxCell id="o47skZGHR9bdBCTCLBsT-8" style="edgeStyle=orthogonalEdgeStyle;rounded=0;orthogonalLoop=1;jettySize=auto;html=1;entryX=0.5;entryY=0;entryDx=0;entryDy=0;" edge="1" parent="1" source="o47skZGHR9bdBCTCLBsT-1" target="o47skZGHR9bdBCTCLBsT-2">
          <mxGeometry relative="1" as="geometry" />
        </mxCell>
        <mxCell id="o47skZGHR9bdBCTCLBsT-1" value="Produto TV (Obrig.)&lt;div&gt;Total Cine, Claro Streaming, etc.&lt;/div&gt;" style="rounded=1;whiteSpace=wrap;html=1;" vertex="1" parent="1">
          <mxGeometry x="480" y="270" width="120" height="60" as="geometry" />
        </mxCell>
        <mxCell id="o47skZGHR9bdBCTCLBsT-5" style="edgeStyle=orthogonalEdgeStyle;rounded=0;orthogonalLoop=1;jettySize=auto;html=1;entryX=0;entryY=0.5;entryDx=0;entryDy=0;" edge="1" parent="1" source="o47skZGHR9bdBCTCLBsT-2" target="CSFAE-QpbG_KnxOwziDy-1">
          <mxGeometry relative="1" as="geometry" />
        </mxCell>
        <mxCell id="o47skZGHR9bdBCTCLBsT-2" value="Agregado PP" style="rounded=1;whiteSpace=wrap;html=1;" vertex="1" parent="1">
          <mxGeometry x="480" y="360" width="120" height="60" as="geometry" />
        </mxCell>
        <mxCell id="o47skZGHR9bdBCTCLBsT-6" value="TOP HD, etc" style="rounded=1;whiteSpace=wrap;html=1;" vertex="1" parent="1">
          <mxGeometry x="680" y="270" width="120" height="60" as="geometry" />
        </mxCell>
        <mxCell id="o47skZGHR9bdBCTCLBsT-9" value="Produto Virtua (Ponto de TV Fake) individual" style="rounded=1;whiteSpace=wrap;html=1;" vertex="1" parent="1">
          <mxGeometry x="480" y="450" width="120" height="60" as="geometry" />
        </mxCell>
        <mxCell id="o47skZGHR9bdBCTCLBsT-11" style="edgeStyle=orthogonalEdgeStyle;rounded=0;orthogonalLoop=1;jettySize=auto;html=1;entryX=0;entryY=0.5;entryDx=0;entryDy=0;" edge="1" parent="1" source="o47skZGHR9bdBCTCLBsT-10" target="CSFAE-QpbG_KnxOwziDy-2">
          <mxGeometry relative="1" as="geometry" />
        </mxCell>
        <mxCell id="o47skZGHR9bdBCTCLBsT-23" style="edgeStyle=orthogonalEdgeStyle;rounded=0;orthogonalLoop=1;jettySize=auto;html=1;entryX=0;entryY=0.5;entryDx=0;entryDy=0;" edge="1" parent="1" source="o47skZGHR9bdBCTCLBsT-10" target="o47skZGHR9bdBCTCLBsT-14">
          <mxGeometry relative="1" as="geometry" />
        </mxCell>
        <mxCell id="o47skZGHR9bdBCTCLBsT-34" style="edgeStyle=orthogonalEdgeStyle;rounded=0;orthogonalLoop=1;jettySize=auto;html=1;entryX=0;entryY=0.5;entryDx=0;entryDy=0;" edge="1" parent="1" source="o47skZGHR9bdBCTCLBsT-10" target="o47skZGHR9bdBCTCLBsT-30">
          <mxGeometry relative="1" as="geometry" />
        </mxCell>
        <mxCell id="o47skZGHR9bdBCTCLBsT-40" style="edgeStyle=orthogonalEdgeStyle;rounded=0;orthogonalLoop=1;jettySize=auto;html=1;entryX=0;entryY=0.5;entryDx=0;entryDy=0;" edge="1" parent="1" source="o47skZGHR9bdBCTCLBsT-10" target="o47skZGHR9bdBCTCLBsT-36">
          <mxGeometry relative="1" as="geometry" />
        </mxCell>
        <mxCell id="o47skZGHR9bdBCTCLBsT-10" value="Perfil Cliente" style="rounded=1;whiteSpace=wrap;html=1;" vertex="1" parent="1">
          <mxGeometry x="170" y="270" width="120" height="60" as="geometry" />
        </mxCell>
        <mxCell id="o47skZGHR9bdBCTCLBsT-22" style="edgeStyle=orthogonalEdgeStyle;rounded=0;orthogonalLoop=1;jettySize=auto;html=1;entryX=0;entryY=0.5;entryDx=0;entryDy=0;" edge="1" parent="1" source="o47skZGHR9bdBCTCLBsT-14" target="o47skZGHR9bdBCTCLBsT-18">
          <mxGeometry relative="1" as="geometry" />
        </mxCell>
        <mxCell id="o47skZGHR9bdBCTCLBsT-25" style="edgeStyle=orthogonalEdgeStyle;rounded=0;orthogonalLoop=1;jettySize=auto;html=1;entryX=0;entryY=0.5;entryDx=0;entryDy=0;" edge="1" parent="1" source="o47skZGHR9bdBCTCLBsT-14" target="o47skZGHR9bdBCTCLBsT-24">
          <mxGeometry relative="1" as="geometry">
            <Array as="points">
              <mxPoint x="460" y="570" />
              <mxPoint x="460" y="940" />
            </Array>
          </mxGeometry>
        </mxCell>
        <mxCell id="o47skZGHR9bdBCTCLBsT-27" style="edgeStyle=orthogonalEdgeStyle;rounded=0;orthogonalLoop=1;jettySize=auto;html=1;entryX=0;entryY=0.5;entryDx=0;entryDy=0;" edge="1" parent="1" source="o47skZGHR9bdBCTCLBsT-14" target="o47skZGHR9bdBCTCLBsT-26">
          <mxGeometry relative="1" as="geometry">
            <Array as="points">
              <mxPoint x="460" y="570" />
              <mxPoint x="460" y="1030" />
            </Array>
          </mxGeometry>
        </mxCell>
        <mxCell id="o47skZGHR9bdBCTCLBsT-45" style="edgeStyle=orthogonalEdgeStyle;rounded=0;orthogonalLoop=1;jettySize=auto;html=1;entryX=0;entryY=0.5;entryDx=0;entryDy=0;" edge="1" parent="1" source="o47skZGHR9bdBCTCLBsT-14" target="o47skZGHR9bdBCTCLBsT-43">
          <mxGeometry relative="1" as="geometry">
            <Array as="points">
              <mxPoint x="460" y="570" />
              <mxPoint x="460" y="660" />
            </Array>
          </mxGeometry>
        </mxCell>
        <mxCell id="o47skZGHR9bdBCTCLBsT-46" style="edgeStyle=orthogonalEdgeStyle;rounded=0;orthogonalLoop=1;jettySize=auto;html=1;entryX=0;entryY=0.5;entryDx=0;entryDy=0;" edge="1" parent="1" source="o47skZGHR9bdBCTCLBsT-14" target="o47skZGHR9bdBCTCLBsT-44">
          <mxGeometry relative="1" as="geometry">
            <Array as="points">
              <mxPoint x="460" y="570" />
              <mxPoint x="460" y="740" />
            </Array>
          </mxGeometry>
        </mxCell>
        <mxCell id="o47skZGHR9bdBCTCLBsT-14" value="6 - Adicional&amp;nbsp;&lt;div&gt;(Ponto Adicional - PA)&lt;/div&gt;" style="rounded=1;whiteSpace=wrap;html=1;" vertex="1" parent="1">
          <mxGeometry x="330" y="540" width="120" height="60" as="geometry" />
        </mxCell>
        <mxCell id="o47skZGHR9bdBCTCLBsT-15" value="A La Carte" style="rounded=1;whiteSpace=wrap;html=1;" vertex="1" parent="1">
          <mxGeometry x="680" y="820" width="120" height="60" as="geometry" />
        </mxCell>
        <mxCell id="o47skZGHR9bdBCTCLBsT-18" value="BL: Virtua 6M, Fone+NET, BL 500, etc." style="rounded=1;whiteSpace=wrap;html=1;" vertex="1" parent="1">
          <mxGeometry x="480" y="540" width="120" height="60" as="geometry" />
        </mxCell>
        <mxCell id="o47skZGHR9bdBCTCLBsT-19" style="edgeStyle=orthogonalEdgeStyle;rounded=0;orthogonalLoop=1;jettySize=auto;html=1;entryX=0;entryY=0.5;entryDx=0;entryDy=0;" edge="1" parent="1" source="o47skZGHR9bdBCTCLBsT-20" target="o47skZGHR9bdBCTCLBsT-15">
          <mxGeometry relative="1" as="geometry" />
        </mxCell>
        <mxCell id="o47skZGHR9bdBCTCLBsT-20" value="Agregado PA" style="rounded=1;whiteSpace=wrap;html=1;" vertex="1" parent="1">
          <mxGeometry x="480" y="820" width="120" height="60" as="geometry" />
        </mxCell>
        <mxCell id="o47skZGHR9bdBCTCLBsT-21" value="TOP HD, etc" style="rounded=1;whiteSpace=wrap;html=1;" vertex="1" parent="1">
          <mxGeometry x="680" y="540" width="120" height="60" as="geometry" />
        </mxCell>
        <mxCell id="o47skZGHR9bdBCTCLBsT-29" style="edgeStyle=orthogonalEdgeStyle;rounded=0;orthogonalLoop=1;jettySize=auto;html=1;" edge="1" parent="1" source="o47skZGHR9bdBCTCLBsT-24" target="o47skZGHR9bdBCTCLBsT-28">
          <mxGeometry relative="1" as="geometry" />
        </mxCell>
        <mxCell id="o47skZGHR9bdBCTCLBsT-24" value="Internet BL" style="rounded=1;whiteSpace=wrap;html=1;" vertex="1" parent="1">
          <mxGeometry x="480" y="910" width="120" height="60" as="geometry" />
        </mxCell>
        <mxCell id="o47skZGHR9bdBCTCLBsT-26" value="Fone Fixo" style="rounded=1;whiteSpace=wrap;html=1;" vertex="1" parent="1">
          <mxGeometry x="480" y="1000" width="120" height="60" as="geometry" />
        </mxCell>
        <mxCell id="o47skZGHR9bdBCTCLBsT-28" value="SVA (Combo)" style="rounded=1;whiteSpace=wrap;html=1;" vertex="1" parent="1">
          <mxGeometry x="680" y="910" width="120" height="60" as="geometry" />
        </mxCell>
        <mxCell id="o47skZGHR9bdBCTCLBsT-33" style="edgeStyle=orthogonalEdgeStyle;rounded=0;orthogonalLoop=1;jettySize=auto;html=1;" edge="1" parent="1" source="o47skZGHR9bdBCTCLBsT-30" target="o47skZGHR9bdBCTCLBsT-31">
          <mxGeometry relative="1" as="geometry" />
        </mxCell>
        <mxCell id="o47skZGHR9bdBCTCLBsT-30" value="SVA" style="rounded=1;whiteSpace=wrap;html=1;" vertex="1" parent="1">
          <mxGeometry x="330" y="1090" width="120" height="60" as="geometry" />
        </mxCell>
        <mxCell id="o47skZGHR9bdBCTCLBsT-31" value="Assist. TÃ©cnica, Aplicativos, ConteÃºdo Digital, etc." style="rounded=1;whiteSpace=wrap;html=1;" vertex="1" parent="1">
          <mxGeometry x="480" y="1090" width="120" height="60" as="geometry" />
        </mxCell>
        <mxCell id="o47skZGHR9bdBCTCLBsT-35" value="AGREGADO INFORMATIVO (?)" style="rounded=1;whiteSpace=wrap;html=1;" vertex="1" parent="1">
          <mxGeometry x="330" y="1200" width="120" height="60" as="geometry" />
        </mxCell>
        <mxCell id="o47skZGHR9bdBCTCLBsT-36" value="1 - Provedor" style="rounded=1;whiteSpace=wrap;html=1;" vertex="1" parent="1">
          <mxGeometry x="330" y="20" width="120" height="40" as="geometry" />
        </mxCell>
        <mxCell id="o47skZGHR9bdBCTCLBsT-37" value="2 - AquisiÃ§Ã£o" style="rounded=1;whiteSpace=wrap;html=1;" vertex="1" parent="1">
          <mxGeometry x="330" y="70" width="120" height="50" as="geometry" />
        </mxCell>
        <mxCell id="o47skZGHR9bdBCTCLBsT-38" value="3 - DegustaÃ§Ã£o" style="rounded=1;whiteSpace=wrap;html=1;" vertex="1" parent="1">
          <mxGeometry x="330" y="130" width="120" height="20" as="geometry" />
        </mxCell>
        <mxCell id="o47skZGHR9bdBCTCLBsT-39" value="4 - IP Extra" style="rounded=1;whiteSpace=wrap;html=1;" vertex="1" parent="1">
          <mxGeometry x="330" y="220" width="120" height="20" as="geometry" />
        </mxCell>
        <mxCell id="o47skZGHR9bdBCTCLBsT-41" value="Acesso Gratis, UOL, Terra, SuperIG, etc" style="rounded=1;whiteSpace=wrap;html=1;" vertex="1" parent="1">
          <mxGeometry x="480" y="20" width="120" height="40" as="geometry" />
        </mxCell>
        <mxCell id="o47skZGHR9bdBCTCLBsT-42" value="Comodato, Serv. Grav. Digital, PrÃ³prio, aluguel, etc." style="rounded=1;whiteSpace=wrap;html=1;" vertex="1" parent="1">
          <mxGeometry x="480" y="70" width="120" height="50" as="geometry" />
        </mxCell>
        <mxCell id="o47skZGHR9bdBCTCLBsT-43" value="FONE: Fone+NET, etc." style="rounded=1;whiteSpace=wrap;html=1;" vertex="1" parent="1">
          <mxGeometry x="480" y="630" width="120" height="60" as="geometry" />
        </mxCell>
        <mxCell id="o47skZGHR9bdBCTCLBsT-44" value="COMBO: BL 500M GPLAY C/CEL ou TV, etc" style="rounded=1;whiteSpace=wrap;html=1;" vertex="1" parent="1">
          <mxGeometry x="480" y="710" width="120" height="60" as="geometry" />
        </mxCell>
      </root>
    </mxGraphModel>
  </diagram>
</mxfile>
